<svg xmlns="http://www.w3.org/2000/svg" xmlns:xlink="http://www.w3.org/1999/xlink" width="150" zoomAndPan="magnify" viewBox="0 0 1440 809.999993" height="100" preserveAspectRatio="xMidYMid meet" version="1.0"><defs><g/><clipPath id="7402dd607a"><path d="M 580.578125 151 L 807 151 L 807 527 L 580.578125 527 Z M 580.578125 151 " clip-rule="nonzero"/></clipPath><clipPath id="09f3de8bb6"><path d="M 83 618.402344 L 429.808594 618.402344 L 429.808594 626.777344 L 83 626.777344 Z M 83 618.402344 " clip-rule="nonzero"/></clipPath><clipPath id="f4a52622d3"><path d="M 1031 614.382812 L 1377.683594 614.382812 L 1377.683594 622.757812 L 1031 622.757812 Z M 1031 614.382812 " clip-rule="nonzero"/></clipPath></defs><g fill="#000000" fill-opacity="1"><g transform="translate(175.119725, 453.652491)"><g><path d="M 127.703125 -78.519531 L 127.703125 -117.636719 L 60.402344 -117.636719 L 60.402344 -156.464844 L 130.582031 -156.464844 L 130.582031 -195.582031 L 17.257812 -195.582031 L 17.257812 0 L 60.402344 0 L 60.402344 -78.519531 Z M 127.703125 -78.519531 "/></g></g></g><g fill="#000000" fill-opacity="1"><g transform="translate(377.605311, 453.652491)"><g><path d="M 60.402344 0 L 60.402344 -195.582031 L 17.257812 -195.582031 L 17.257812 0 Z M 60.402344 0 "/></g></g></g><g fill="#000000" fill-opacity="1"><g transform="translate(512.775705, 453.652491)"><g/></g></g><g fill="#000000" fill-opacity="1"><g transform="translate(642.205456, 453.652491)"><g/></g></g><g fill="#000000" fill-opacity="1"><g transform="translate(771.635207, 453.652491)"><g/></g></g><g fill="#000000" fill-opacity="1"><g transform="translate(901.015167, 453.652491)"><g><path d="M 130.582031 -39.117188 L 60.402344 -39.117188 L 60.402344 -78.519531 L 127.703125 -78.519531 L 127.703125 -117.636719 L 60.402344 -117.636719 L 60.402344 -156.464844 L 130.582031 -156.464844 L 130.582031 -195.582031 L 17.257812 -195.582031 L 17.257812 0 L 130.582031 0 Z M 130.582031 -39.117188 "/></g></g></g><g fill="#000000" fill-opacity="1"><g transform="translate(1106.376952, 453.652491)"><g><path d="M 60.402344 -69.890625 L 60.6875 -69.890625 L 107.28125 0 L 161.929688 0 L 105.84375 -71.90625 C 130.582031 -77.945312 150.425781 -99.804688 150.425781 -132.882812 C 150.425781 -169.984375 122.238281 -195.582031 90.601562 -195.582031 L 17.257812 -195.582031 L 17.257812 0 L 60.402344 0 Z M 83.410156 -161.644531 C 96.066406 -161.644531 109.296875 -150.714844 109.296875 -132.882812 C 109.296875 -114.1875 96.066406 -103.832031 83.410156 -103.832031 L 60.402344 -103.832031 L 60.402344 -161.644531 Z M 83.410156 -161.644531 "/></g></g></g><g clip-path="url(#7402dd607a)"><path fill="#000000" d="M 656.476562 289.089844 C 650.429688 254.101562 644.6875 220.335938 638.871094 186.574219 C 635.808594 169.003906 644.457031 154.808594 660.070312 151.738281 C 676.527344 148.515625 688.925781 157.417969 692.90625 175.296875 C 701.632812 214.582031 710.207031 253.945312 719.007812 293.234375 C 720.078125 298.144531 721.914062 302.824219 725.820312 307.964844 C 727.425781 302.441406 729.417969 296.917969 730.640625 291.238281 C 738.296875 255.558594 745.71875 219.875 753.375 184.195312 C 757.199219 166.164062 768.527344 157.417969 783.835938 160.253906 C 800.90625 163.476562 808.710938 176.214844 805.421875 195.015625 C 799.066406 231.539062 793.175781 268.21875 786.363281 304.667969 C 779.625 340.808594 785.289062 375.566406 793.863281 410.789062 C 807.105469 465.421875 766.613281 521.128906 710.816406 526.117188 C 695.890625 527.421875 680.277344 526.578125 665.582031 523.585938 C 626.777344 515.683594 604.582031 489.363281 594.246094 452.53125 C 590.113281 437.644531 588.429688 422.066406 586.363281 406.722656 C 584.296875 391.683594 583.148438 376.566406 581.617188 361.449219 C 581.234375 357.382812 580.699219 353.238281 580.699219 349.09375 C 580.625 328.761719 588.660156 318.785156 608.332031 314.105469 C 611.316406 313.414062 615.601562 311.878906 616.445312 309.578125 C 622.414062 294.613281 634.585938 290.242188 648.898438 288.9375 C 651.039062 288.859375 653.183594 289.089844 656.476562 289.089844 Z M 597.460938 412.476562 C 600.753906 426.824219 603.050781 440.945312 607.257812 454.371094 C 618.511719 489.902344 642.851562 509.925781 679.972656 514.839844 C 734.007812 521.976562 772.96875 494.65625 783.222656 441.867188 C 787.28125 420.917969 779.855469 401.8125 775.035156 382.242188 C 772.660156 372.5 766.386719 366.207031 756.894531 363.289062 C 734.546875 356.386719 712.195312 349.632812 689.769531 342.878906 C 687.089844 342.113281 684.183594 342.113281 681.351562 341.730469 C 674.460938 340.886719 671.324219 344.183594 671.324219 350.9375 C 671.324219 366.898438 679.589844 378.332031 692.832031 385.390625 C 702.167969 390.378906 712.960938 392.449219 722.988281 396.285156 C 725.820312 397.359375 730.105469 399.738281 730.410156 401.886719 C 731.941406 415.238281 732.476562 428.746094 733.472656 443.628906 C 722.988281 434.269531 720.769531 422.296875 718.164062 409.714844 C 697.804688 427.285156 692.066406 450.996094 686.09375 474.707031 C 678.746094 447.390625 687.089844 424.601562 705.613281 404.113281 C 701.863281 402.960938 699.414062 402.195312 696.964844 401.503906 C 688.46875 417.234375 676.453125 424.371094 659.078125 421.222656 C 657.164062 420.917969 654.5625 422.605469 652.800781 423.988281 C 639.867188 434.117188 623.640625 434.039062 610.933594 423.601562 C 606.953125 420.226562 602.898438 416.925781 597.460938 412.476562 Z M 770.289062 354.464844 C 771.359375 340.578125 771.511719 326.613281 773.65625 312.878906 C 779.933594 272.824219 787.050781 232.84375 793.785156 192.789062 C 795.777344 180.820312 792.253906 174.296875 782.6875 172.300781 C 772.890625 170.308594 767.378906 174.605469 764.777344 186.882812 C 758.882812 214.429688 753.375 242.128906 747.175781 269.675781 C 743.960938 284.179688 740.285156 298.683594 735.617188 312.722656 C 734.316406 316.484375 728.5 321.011719 724.671875 321.011719 C 720.84375 321.085938 715.5625 316.714844 713.574219 312.878906 C 709.976562 305.972656 707.757812 298.144531 705.996094 290.472656 C 697.578125 253.027344 689.539062 215.578125 681.273438 178.058594 C 678.746094 166.394531 671.859375 161.175781 662.136719 163.324219 C 652.800781 165.394531 648.363281 172.917969 650.429688 184.808594 C 657.621094 226.324219 665.734375 267.757812 672.089844 309.425781 C 674.308594 323.925781 679.285156 329.683594 694.515625 332.597656 C 720.15625 337.507812 744.878906 346.871094 770.289062 354.464844 Z M 685.328125 397.285156 C 679.128906 390.378906 672.546875 384.390625 667.496094 377.257812 C 659.460938 365.824219 656.320312 352.855469 662.214844 339.503906 C 667.878906 326.6875 660.453125 315.640625 658.769531 303.898438 C 658.617188 302.980469 656.320312 302.132812 654.945312 301.675781 C 640.171875 296.992188 625.167969 307.964844 626.929688 323.082031 C 630.144531 350.09375 638.945312 375.492188 651.195312 399.664062 C 654.484375 406.109375 659.765625 410.941406 667.800781 410.175781 C 676.453125 409.332031 682.726562 405.1875 685.328125 397.285156 Z M 645.914062 413.628906 C 628.996094 386.3125 621.191406 356.308594 614.609375 326.074219 C 601.058594 327.148438 594.09375 331.371094 593.253906 341.113281 C 590.804688 368.738281 599.300781 393.140625 617.820312 413.550781 C 625.859375 422.453125 636.421875 421.683594 645.914062 413.628906 Z M 645.914062 413.628906 " fill-opacity="1" fill-rule="nonzero"/></g><g fill="#000000" fill-opacity="1"><g transform="translate(454.000541, 641.597454)"><g><path d="M 40.921875 -14.902344 C 40.921875 -18.6875 39.976562 -21.917969 38.164062 -24.441406 C 36.269531 -26.964844 33.746094 -28.699219 30.671875 -29.566406 C 32.484375 -30.355469 34.0625 -31.777344 35.246094 -33.90625 C 35.796875 -34.851562 36.191406 -35.796875 36.507812 -36.820312 C 36.820312 -37.847656 36.980469 -39.265625 36.980469 -41.078125 C 36.980469 -42.816406 36.507812 -44.628906 35.71875 -46.363281 C 33.351562 -51.171875 28.226562 -53.617188 20.421875 -53.617188 L 5.914062 -53.617188 L 5.914062 0 L 22.3125 0 C 27.753906 0 32.089844 -1.183594 35.402344 -3.707031 C 37.058594 -4.96875 38.398438 -6.625 39.425781 -8.671875 C 40.371094 -10.644531 40.921875 -12.695312 40.921875 -14.902344 Z M 31.460938 -40.210938 C 31.460938 -37.296875 30.59375 -35.167969 28.859375 -33.746094 C 27.125 -32.328125 24.835938 -31.617188 22 -31.617188 L 11.433594 -31.617188 L 11.433594 -48.335938 L 20.421875 -48.335938 C 27.753906 -48.335938 31.460938 -45.574219 31.460938 -40.210938 Z M 35.402344 -16.007812 C 35.402344 -12.773438 34.300781 -10.171875 32.089844 -8.199219 C 29.960938 -6.230469 27.203125 -5.28125 23.890625 -5.28125 L 11.433594 -5.28125 L 11.433594 -26.097656 L 24.757812 -26.097656 C 27.519531 -26.097656 29.960938 -25.152344 32.089844 -23.261719 C 33.039062 -22.394531 33.824219 -21.367188 34.457031 -20.183594 C 35.085938 -18.921875 35.402344 -17.582031 35.402344 -16.007812 Z M 35.402344 -16.007812 "/></g></g></g><g fill="#000000" fill-opacity="1"><g transform="translate(512.269006, 641.597454)"><g><path d="M 44.707031 -17.742188 L 44.707031 -53.617188 L 39.1875 -53.617188 L 39.1875 -16.953125 C 39.1875 -14.746094 38.792969 -12.929688 38.003906 -11.433594 C 35.71875 -7.015625 31.304688 -4.808594 24.757812 -4.808594 C 20.5 -4.808594 17.109375 -5.757812 14.585938 -7.648438 C 11.667969 -9.777344 10.25 -12.851562 10.25 -16.953125 L 10.25 -53.617188 L 4.730469 -53.617188 L 4.730469 -17.742188 C 4.730469 -11.90625 6.625 -7.332031 10.40625 -4.019531 C 13.957031 -0.867188 18.765625 0.710938 24.757812 0.710938 C 30.671875 0.710938 35.402344 -0.867188 39.03125 -4.019531 C 42.816406 -7.332031 44.707031 -11.90625 44.707031 -17.742188 Z M 44.707031 -17.742188 "/></g></g></g><g fill="#000000" fill-opacity="1"><g transform="translate(577.475958, 641.597454)"><g><path d="M 1.578125 -48.648438 L 14.585938 -48.648438 L 14.585938 -0.15625 L 20.105469 -0.15625 L 20.105469 -48.648438 L 33.117188 -48.648438 L 33.117188 -53.773438 L 1.578125 -53.773438 Z M 1.578125 -48.648438 "/></g></g></g><g fill="#000000" fill-opacity="1"><g transform="translate(627.938617, 641.597454)"><g/></g></g><g fill="#000000" fill-opacity="1"><g transform="translate(664.997402, 641.597454)"><g><path d="M 40.921875 -14.902344 C 40.921875 -18.6875 39.976562 -21.917969 38.164062 -24.441406 C 36.269531 -26.964844 33.746094 -28.699219 30.671875 -29.566406 C 32.484375 -30.355469 34.0625 -31.777344 35.246094 -33.90625 C 35.796875 -34.851562 36.191406 -35.796875 36.507812 -36.820312 C 36.820312 -37.847656 36.980469 -39.265625 36.980469 -41.078125 C 36.980469 -42.816406 36.507812 -44.628906 35.71875 -46.363281 C 33.351562 -51.171875 28.226562 -53.617188 20.421875 -53.617188 L 5.914062 -53.617188 L 5.914062 0 L 22.3125 0 C 27.753906 0 32.089844 -1.183594 35.402344 -3.707031 C 37.058594 -4.96875 38.398438 -6.625 39.425781 -8.671875 C 40.371094 -10.644531 40.921875 -12.695312 40.921875 -14.902344 Z M 31.460938 -40.210938 C 31.460938 -37.296875 30.59375 -35.167969 28.859375 -33.746094 C 27.125 -32.328125 24.835938 -31.617188 22 -31.617188 L 11.433594 -31.617188 L 11.433594 -48.335938 L 20.421875 -48.335938 C 27.753906 -48.335938 31.460938 -45.574219 31.460938 -40.210938 Z M 35.402344 -16.007812 C 35.402344 -12.773438 34.300781 -10.171875 32.089844 -8.199219 C 29.960938 -6.230469 27.203125 -5.28125 23.890625 -5.28125 L 11.433594 -5.28125 L 11.433594 -26.097656 L 24.757812 -26.097656 C 27.519531 -26.097656 29.960938 -25.152344 32.089844 -23.261719 C 33.039062 -22.394531 33.824219 -21.367188 34.457031 -20.183594 C 35.085938 -18.921875 35.402344 -17.582031 35.402344 -16.007812 Z M 35.402344 -16.007812 "/></g></g></g><g fill="#000000" fill-opacity="1"><g transform="translate(723.265871, 641.597454)"><g><path d="M 37.769531 0 L 37.769531 -5.125 L 11.433594 -5.125 L 11.433594 -24.207031 L 36.980469 -24.207031 L 36.980469 -29.410156 L 11.433594 -29.410156 L 11.433594 -48.492188 L 37.769531 -48.492188 L 37.769531 -53.617188 L 5.914062 -53.617188 L 5.914062 0 Z M 37.769531 0 "/></g></g></g><g fill="#000000" fill-opacity="1"><g transform="translate(782.717027, 641.597454)"><g><path d="M 1.578125 -48.648438 L 14.585938 -48.648438 L 14.585938 -0.15625 L 20.105469 -0.15625 L 20.105469 -48.648438 L 33.117188 -48.648438 L 33.117188 -53.773438 L 1.578125 -53.773438 Z M 1.578125 -48.648438 "/></g></g></g><g fill="#000000" fill-opacity="1"><g transform="translate(833.179695, 641.597454)"><g><path d="M 1.578125 -48.648438 L 14.585938 -48.648438 L 14.585938 -0.15625 L 20.105469 -0.15625 L 20.105469 -48.648438 L 33.117188 -48.648438 L 33.117188 -53.773438 L 1.578125 -53.773438 Z M 1.578125 -48.648438 "/></g></g></g><g fill="#000000" fill-opacity="1"><g transform="translate(883.642362, 641.597454)"><g><path d="M 37.769531 0 L 37.769531 -5.125 L 11.433594 -5.125 L 11.433594 -24.207031 L 36.980469 -24.207031 L 36.980469 -29.410156 L 11.433594 -29.410156 L 11.433594 -48.492188 L 37.769531 -48.492188 L 37.769531 -53.617188 L 5.914062 -53.617188 L 5.914062 0 Z M 37.769531 0 "/></g></g></g><g fill="#000000" fill-opacity="1"><g transform="translate(943.093518, 641.597454)"><g><path d="M 11.433594 -26.492188 L 11.433594 -48.335938 L 23.890625 -48.335938 C 27.125 -48.335938 29.726562 -47.308594 31.695312 -45.257812 C 33.589844 -43.207031 34.613281 -40.6875 34.613281 -37.53125 C 34.613281 -34.378906 33.589844 -31.777344 31.539062 -29.648438 C 29.488281 -27.519531 26.964844 -26.492188 23.890625 -26.492188 Z M 40.132812 -37.453125 C 40.132812 -42.027344 38.398438 -45.96875 35.085938 -49.042969 C 31.855469 -52.039062 27.832031 -53.617188 23.101562 -53.617188 L 5.914062 -53.617188 L 5.914062 0 L 11.433594 0 L 11.433594 -21.210938 L 17.820312 -21.210938 L 33.589844 0 L 41 0 L 24.441406 -21.210938 C 28.621094 -21.445312 32.171875 -22.945312 35.085938 -25.703125 C 38.398438 -28.78125 40.132812 -32.722656 40.132812 -37.453125 Z M 40.132812 -37.453125 "/></g></g></g><g clip-path="url(#09f3de8bb6)"><path fill="#000000" d="M 845.296875 626.710938 L 83.40625 626.710938 L 83.40625 618.375 L 845.296875 618.375 L 845.296875 626.710938 " fill-opacity="1" fill-rule="nonzero"/></g><g clip-path="url(#f4a52622d3)"><path fill="#000000" d="M 1793.167969 622.691406 L 1031.277344 622.691406 L 1031.277344 614.355469 L 1793.167969 614.355469 L 1793.167969 622.691406 " fill-opacity="1" fill-rule="nonzero"/></g></svg>
