<svg xmlns="http://www.w3.org/2000/svg" xmlns:xlink="http://www.w3.org/1999/xlink" width="300" zoomAndPan="magnify" viewBox="0 0 1440 809.999993" height="300" preserveAspectRatio="xMidYMid meet" version="1.0"><defs><clipPath id="b3f59eee6d"><path d="M 315 0 L 1125 0 L 1125 810 L 315 810 Z M 315 0 " clip-rule="nonzero"/></clipPath><clipPath id="d269f96300"><path d="M 720 810 C 943.675781 810 1125 628.675781 1125 405 C 1125 181.324219 943.675781 0 720 0 C 496.324219 0 315 181.324219 315 405 C 315 628.675781 496.324219 810 720 810 " clip-rule="nonzero"/></clipPath><clipPath id="25c42f5723"><path d="M 583.285156 177.195312 L 857 177.195312 L 857 632.445312 L 583.285156 632.445312 Z M 583.285156 177.195312 " clip-rule="nonzero"/></clipPath></defs><g clip-path="url(#b3f59eee6d)"><g clip-path="url(#d269f96300)"><path fill="#fafafa" d="M 1125 810 L 315 810 L 315 0 L 1125 0 Z M 1125 810 " fill-opacity="1" fill-rule="nonzero"/></g></g><g clip-path="url(#25c42f5723)"><path fill="#737373" d="M 631.066406 177.695312 L 856.996094 404.070312 L 629.496094 632.011719 L 583.234375 585.667969 L 764.476562 404.070312 L 584.804688 224.039062 L 631.066406 177.695312 " fill-opacity="1" fill-rule="nonzero"/></g></svg>
