<svg xmlns="http://www.w3.org/2000/svg" xmlns:xlink="http://www.w3.org/1999/xlink" width="300" zoomAndPan="magnify" viewBox="0 0 1440 809.999993" height="300" preserveAspectRatio="xMidYMid meet" version="1.0"><defs><clipPath id="ca7b86875f"><path d="M 315 0 L 1125 0 L 1125 810 L 315 810 Z M 315 0 " clip-rule="nonzero"/></clipPath><clipPath id="306fa6fdd0"><path d="M 720 0 C 496.324219 0 315 181.324219 315 405 C 315 628.675781 496.324219 810 720 810 C 943.675781 810 1125 628.675781 1125 405 C 1125 181.324219 943.675781 0 720 0 " clip-rule="nonzero"/></clipPath><clipPath id="679fbe19ed"><path d="M 583 177.554688 L 856.714844 177.554688 L 856.714844 632.804688 L 583 632.804688 Z M 583 177.554688 " clip-rule="nonzero"/></clipPath></defs><g clip-path="url(#ca7b86875f)"><g clip-path="url(#306fa6fdd0)"><path fill="#fafafa" d="M 315 0 L 1125 0 L 1125 810 L 315 810 Z M 315 0 " fill-opacity="1" fill-rule="nonzero"/></g></g><g clip-path="url(#679fbe19ed)"><path fill="#737373" d="M 808.933594 632.304688 L 583.003906 405.929688 L 810.503906 177.988281 L 856.765625 224.332031 L 675.523438 405.929688 L 855.195312 585.960938 L 808.933594 632.304688 " fill-opacity="1" fill-rule="nonzero"/></g></svg>
